<svg width="24" height="20" viewBox="0 0 24 20" fill="none" xmlns="http://www.w3.org/2000/svg">
<path id="Cart" d="M23.7481 2.58737C23.5276 2.31206 23.1926 2.15075 22.8391 2.15075H9.15853C8.51703 2.15075 7.99703 2.66853 7.99703 3.30728C7.99703 3.94603 8.51703 4.46381 9.15853 4.46381H21.3781L19.4016 12.9737C19.3461 13.2132 19.1346 13.3805 18.8881 13.3805H8.33853C7.93653 11.6434 5.60152 1.54635 5.60152 1.54635C5.39102 0.635268 4.58751 0 3.64801 0H1.1615C0.520002 0 0 0.517774 0 1.15653C0 1.79528 0.520002 2.31305 1.1615 2.31305H3.39601L6.20402 14.4563L5.55852 16.1605C5.22802 17.0323 5.34852 18.0101 5.88102 18.7768C6.41352 19.5425 7.28952 20 8.22503 20H18.6531C19.2946 20 19.8146 19.4822 19.8146 18.8435C19.8146 18.2047 19.2946 17.6869 18.6531 17.6869H8.22453C7.98403 17.6869 7.85003 17.5456 7.79103 17.4604C7.73253 17.3763 7.64652 17.2005 7.73152 16.9765L8.21753 15.693H18.8876C20.2221 15.693 21.3641 14.7889 21.6641 13.495L23.9701 3.56816C24.0501 3.22463 23.9676 2.86418 23.7476 2.58787L23.7481 2.58737Z" fill="black"/>
</svg>
